<mxfile host="drawio-plugin" modified="2021-04-07T15:23:13.757Z" agent="5.0 (Macintosh; Intel Mac OS X 10_16_0) AppleWebKit/537.36 (KHTML, like Gecko) Chrome/84.0.4147.105 Safari/537.36" etag="4Bv7M5-tA5gS2noPCTts" version="13.7.9" type="embed"><diagram id="gEfkdnxPT3Gz775ZsxNj" name="Page-1"><mxGraphModel dx="1716" dy="552" grid="1" gridSize="10" guides="1" tooltips="1" connect="1" arrows="1" fold="1" page="1" pageScale="1" pageWidth="850" pageHeight="1100" math="0" shadow="0"><root><mxCell id="0"/><mxCell id="1" parent="0"/><mxCell id="18" value="cicd-public" style="outlineConnect=0;gradientColor=none;html=1;whiteSpace=wrap;fontSize=12;fontStyle=0;shape=mxgraph.aws4.group;grIcon=mxgraph.aws4.group_subnet;strokeColor=#E8E8E8;fillColor=none;verticalAlign=top;align=left;spacingLeft=30;fontColor=#E8E8E8;dashed=0;" parent="1" vertex="1"><mxGeometry x="90" y="450" width="700" height="120" as="geometry"/></mxCell><mxCell id="4" value="Management Account" style="outlineConnect=0;gradientColor=none;html=1;whiteSpace=wrap;fontSize=12;fontStyle=0;shape=mxgraph.aws4.group;grIcon=mxgraph.aws4.group_aws_cloud;strokeColor=#858B94;fillColor=none;verticalAlign=top;align=left;spacingLeft=30;fontColor=#858B94;dashed=0;" parent="1" vertex="1"><mxGeometry x="-170" y="190" width="1010" height="980" as="geometry"/></mxCell><mxCell id="5" value="eu-west-2" style="outlineConnect=0;gradientColor=none;html=1;whiteSpace=wrap;fontSize=12;fontStyle=0;shape=mxgraph.aws4.group;grIcon=mxgraph.aws4.group_region;strokeColor=#879196;fillColor=none;verticalAlign=top;align=left;spacingLeft=30;fontColor=#879196;dashed=1;" parent="1" vertex="1"><mxGeometry x="330" y="840" width="990" height="920" as="geometry"/></mxCell><mxCell id="12" value="eu-west-2a" style="outlineConnect=0;gradientColor=none;html=1;whiteSpace=wrap;fontSize=12;fontStyle=0;shape=mxgraph.aws4.group;grIcon=mxgraph.aws4.group_availability_zone;strokeColor=#545B64;fillColor=none;verticalAlign=top;align=left;spacingLeft=30;fontColor=#545B64;dashed=1;" parent="1" vertex="1"><mxGeometry x="70" y="390" width="210" height="750" as="geometry"/></mxCell><mxCell id="17" value="cicd" style="outlineConnect=0;gradientColor=none;html=1;whiteSpace=wrap;fontSize=12;fontStyle=0;shape=mxgraph.aws4.group;grIcon=mxgraph.aws4.group_vpc;strokeColor=#B6BABF;fillColor=none;verticalAlign=top;align=left;spacingLeft=30;fontColor=#B6BABF;dashed=0;" parent="1" vertex="1"><mxGeometry x="80" y="420" width="720" height="400" as="geometry"/></mxCell><mxCell id="53" style="edgeStyle=orthogonalEdgeStyle;rounded=0;orthogonalLoop=1;jettySize=auto;html=1;fillColor=#f8cecc;strokeColor=#b85450;strokeWidth=2;" parent="1" source="7" target="13" edge="1"><mxGeometry relative="1" as="geometry"><Array as="points"><mxPoint x="425" y="360"/><mxPoint x="690" y="360"/></Array></mxGeometry></mxCell><mxCell id="54" style="edgeStyle=orthogonalEdgeStyle;rounded=0;orthogonalLoop=1;jettySize=auto;html=1;fillColor=#f8cecc;strokeColor=#b85450;strokeWidth=2;" parent="1" source="7" target="12" edge="1"><mxGeometry relative="1" as="geometry"><Array as="points"><mxPoint x="425" y="360"/><mxPoint x="170" y="360"/></Array><mxPoint x="170" y="360" as="targetPoint"/></mxGeometry></mxCell><mxCell id="68" style="edgeStyle=orthogonalEdgeStyle;rounded=0;orthogonalLoop=1;jettySize=auto;html=1;strokeWidth=2;fillColor=#f8cecc;strokeColor=#b85450;" edge="1" parent="1" source="7" target="14"><mxGeometry relative="1" as="geometry"/></mxCell><mxCell id="7" value="&lt;div style=&quot;text-align: center&quot;&gt;&lt;span&gt;concourse-web&lt;/span&gt;&lt;/div&gt;&lt;font style=&quot;font-size: 8px&quot;&gt;&lt;div style=&quot;text-align: center&quot;&gt;&lt;span&gt;Application Load Balancer&lt;/span&gt;&lt;/div&gt;&lt;/font&gt;" style="outlineConnect=0;dashed=0;verticalLabelPosition=middle;verticalAlign=middle;align=left;html=1;shape=mxgraph.aws3.application_load_balancer;fillColor=#F58534;gradientColor=none;labelPosition=right;" parent="1" vertex="1"><mxGeometry x="405" y="310" width="39" height="40" as="geometry"/></mxCell><mxCell id="13" value="eu-west-2c" style="outlineConnect=0;gradientColor=none;html=1;whiteSpace=wrap;fontSize=12;fontStyle=0;shape=mxgraph.aws4.group;grIcon=mxgraph.aws4.group_availability_zone;strokeColor=#545B64;fillColor=none;verticalAlign=top;align=left;spacingLeft=30;fontColor=#545B64;dashed=1;" parent="1" vertex="1"><mxGeometry x="570" y="390" width="240" height="750" as="geometry"/></mxCell><mxCell id="14" value="eu-west-2b" style="outlineConnect=0;gradientColor=none;html=1;whiteSpace=wrap;fontSize=12;fontStyle=0;shape=mxgraph.aws4.group;grIcon=mxgraph.aws4.group_availability_zone;strokeColor=#545B64;fillColor=none;verticalAlign=top;align=left;spacingLeft=30;fontColor=#545B64;dashed=1;" parent="1" vertex="1"><mxGeometry x="302" y="390" width="245" height="750" as="geometry"/></mxCell><mxCell id="16" value="GitHub Repositories" style="verticalLabelPosition=bottom;html=1;verticalAlign=top;align=center;strokeColor=none;fillColor=#00BEF2;shape=mxgraph.azure.git_repository;" parent="1" vertex="1"><mxGeometry x="199" y="40" width="40" height="40" as="geometry"/></mxCell><mxCell id="19" value="cicd-private&lt;br&gt;" style="outlineConnect=0;gradientColor=none;html=1;whiteSpace=wrap;fontSize=12;fontStyle=0;shape=mxgraph.aws4.group;grIcon=mxgraph.aws4.group_subnet;strokeColor=#E8E8E8;fillColor=none;verticalAlign=top;align=left;spacingLeft=30;fontColor=#E8E8E8;dashed=0;" parent="1" vertex="1"><mxGeometry x="90" y="575" width="700" height="235" as="geometry"/></mxCell><mxCell id="24" value="" style="rounded=1;whiteSpace=wrap;html=1;fillColor=none;glass=0;strokeColor=#3334B9;" parent="1" vertex="1"><mxGeometry x="100" y="720" width="680" height="90" as="geometry"/></mxCell><mxCell id="20" value="concourse-db&lt;br&gt;&lt;font style=&quot;font-size: 8px&quot;&gt;PostgreSQL RDS&lt;/font&gt;" style="outlineConnect=0;fontColor=#232F3E;gradientColor=none;fillColor=#3334B9;strokeColor=none;dashed=0;verticalLabelPosition=bottom;verticalAlign=top;align=center;html=1;fontSize=12;fontStyle=0;aspect=fixed;pointerEvents=1;shape=mxgraph.aws4.rds_instance;" parent="1" vertex="1"><mxGeometry x="170" y="731" width="35" height="35" as="geometry"/></mxCell><mxCell id="89" style="edgeStyle=orthogonalEdgeStyle;rounded=0;orthogonalLoop=1;jettySize=auto;html=1;entryX=0.75;entryY=0.5;entryDx=0;entryDy=0;entryPerimeter=0;strokeWidth=2;dashed=1;fillColor=#d5e8d4;strokeColor=#82b366;" edge="1" parent="1" source="26" target="88"><mxGeometry relative="1" as="geometry"><Array as="points"><mxPoint x="-40" y="510"/><mxPoint x="-40" y="443"/></Array></mxGeometry></mxCell><mxCell id="26" value="concourse-web" style="outlineConnect=0;fontColor=#232F3E;gradientColor=none;fillColor=#D86613;strokeColor=none;dashed=0;verticalLabelPosition=bottom;verticalAlign=top;align=center;html=1;fontSize=12;fontStyle=0;aspect=fixed;pointerEvents=1;shape=mxgraph.aws4.instance2;rounded=1;glass=0;" parent="1" vertex="1"><mxGeometry x="151" y="486" width="48" height="48" as="geometry"/></mxCell><mxCell id="91" style="edgeStyle=orthogonalEdgeStyle;rounded=0;orthogonalLoop=1;jettySize=auto;html=1;dashed=1;strokeWidth=2;fillColor=#d5e8d4;strokeColor=#82b366;endArrow=none;endFill=0;" edge="1" parent="1" source="37"><mxGeometry relative="1" as="geometry"><mxPoint x="-40" y="510" as="targetPoint"/></mxGeometry></mxCell><mxCell id="37" value="concourse-worker" style="outlineConnect=0;fontColor=#232F3E;gradientColor=none;fillColor=#D86613;strokeColor=none;dashed=0;verticalLabelPosition=bottom;verticalAlign=top;align=center;html=1;fontSize=12;fontStyle=0;aspect=fixed;pointerEvents=1;shape=mxgraph.aws4.instance2;rounded=1;glass=0;" parent="1" vertex="1"><mxGeometry x="136" y="630" width="48" height="48" as="geometry"/></mxCell><mxCell id="100" style="edgeStyle=orthogonalEdgeStyle;rounded=0;orthogonalLoop=1;jettySize=auto;html=1;dashed=1;startSize=6;endArrow=none;endFill=0;strokeWidth=2;fillColor=#d5e8d4;strokeColor=#82b366;" edge="1" parent="1" source="38"><mxGeometry relative="1" as="geometry"><mxPoint x="-40" y="570" as="targetPoint"/><Array as="points"><mxPoint x="696" y="570"/></Array></mxGeometry></mxCell><mxCell id="38" value="concourse-worker" style="outlineConnect=0;fontColor=#232F3E;gradientColor=none;fillColor=#D86613;strokeColor=none;dashed=0;verticalLabelPosition=bottom;verticalAlign=top;align=center;html=1;fontSize=12;fontStyle=0;aspect=fixed;pointerEvents=1;shape=mxgraph.aws4.instance2;rounded=1;glass=0;" parent="1" vertex="1"><mxGeometry x="672" y="630" width="48" height="48" as="geometry"/></mxCell><mxCell id="97" style="edgeStyle=orthogonalEdgeStyle;rounded=0;orthogonalLoop=1;jettySize=auto;html=1;startSize=6;endArrow=none;endFill=0;strokeWidth=2;dashed=1;fillColor=#d5e8d4;strokeColor=#82b366;" edge="1" parent="1" source="39"><mxGeometry relative="1" as="geometry"><mxPoint x="-40" y="580" as="targetPoint"/><Array as="points"><mxPoint x="424" y="570"/><mxPoint x="-40" y="570"/></Array></mxGeometry></mxCell><mxCell id="39" value="concourse-worker" style="outlineConnect=0;fontColor=#232F3E;gradientColor=none;fillColor=#D86613;strokeColor=none;dashed=0;verticalLabelPosition=bottom;verticalAlign=top;align=center;html=1;fontSize=12;fontStyle=0;aspect=fixed;pointerEvents=1;shape=mxgraph.aws4.instance2;rounded=1;glass=0;" parent="1" vertex="1"><mxGeometry x="399.5" y="630" width="48" height="48" as="geometry"/></mxCell><mxCell id="77" style="edgeStyle=orthogonalEdgeStyle;rounded=0;orthogonalLoop=1;jettySize=auto;html=1;strokeWidth=2;fillColor=#dae8fc;strokeColor=#6c8ebf;" edge="1" parent="1" source="41" target="70"><mxGeometry relative="1" as="geometry"><Array as="points"><mxPoint x="60" y="604"/><mxPoint x="60" y="840"/><mxPoint x="425" y="840"/></Array></mxGeometry></mxCell><mxCell id="41" value="&lt;font style=&quot;font-size: 8px&quot;&gt;Proxy VPC Endpoint&lt;/font&gt;" style="outlineConnect=0;fontColor=#232F3E;gradientColor=none;fillColor=#C7131F;strokeColor=none;dashed=0;verticalLabelPosition=bottom;verticalAlign=top;align=center;html=1;fontSize=12;fontStyle=0;aspect=fixed;shape=mxgraph.aws4.endpoint;rounded=1;glass=0;" parent="1" vertex="1"><mxGeometry x="224" y="590" width="28" height="28" as="geometry"/></mxCell><mxCell id="55" value="concourse-db&lt;br&gt;&lt;font style=&quot;font-size: 8px&quot;&gt;PostgreSQL RDS&lt;/font&gt;" style="outlineConnect=0;fontColor=#232F3E;gradientColor=none;fillColor=#3334B9;strokeColor=none;dashed=0;verticalLabelPosition=bottom;verticalAlign=top;align=center;html=1;fontSize=12;fontStyle=0;aspect=fixed;pointerEvents=1;shape=mxgraph.aws4.rds_instance;" parent="1" vertex="1"><mxGeometry x="678.5" y="731" width="35" height="35" as="geometry"/></mxCell><mxCell id="56" value="concourse-db&lt;br&gt;&lt;font style=&quot;font-size: 8px&quot;&gt;PostgreSQL RDS&lt;/font&gt;" style="outlineConnect=0;fontColor=#232F3E;gradientColor=none;fillColor=#3334B9;strokeColor=none;dashed=0;verticalLabelPosition=bottom;verticalAlign=top;align=center;html=1;fontSize=12;fontStyle=0;aspect=fixed;pointerEvents=1;shape=mxgraph.aws4.rds_instance;" parent="1" vertex="1"><mxGeometry x="406" y="731" width="35" height="35" as="geometry"/></mxCell><mxCell id="60" style="edgeStyle=orthogonalEdgeStyle;rounded=0;orthogonalLoop=1;jettySize=auto;html=1;entryX=1;entryY=0.5;entryDx=0;entryDy=0;entryPerimeter=0;exitX=0.16;exitY=0.55;exitDx=0;exitDy=0;exitPerimeter=0;" edge="1" parent="1" source="58" target="16"><mxGeometry relative="1" as="geometry"/></mxCell><mxCell id="65" style="edgeStyle=orthogonalEdgeStyle;rounded=0;orthogonalLoop=1;jettySize=auto;html=1;strokeWidth=2;fillColor=#f8cecc;strokeColor=#b85450;exitX=0.499;exitY=0.951;exitDx=0;exitDy=0;exitPerimeter=0;" edge="1" parent="1" source="58" target="7"><mxGeometry relative="1" as="geometry"/></mxCell><mxCell id="58" value="Internet" style="ellipse;shape=cloud;whiteSpace=wrap;html=1;" vertex="1" parent="1"><mxGeometry x="364.5" y="60" width="120" height="80" as="geometry"/></mxCell><mxCell id="62" style="edgeStyle=orthogonalEdgeStyle;rounded=0;orthogonalLoop=1;jettySize=auto;html=1;entryX=0.875;entryY=0.5;entryDx=0;entryDy=0;entryPerimeter=0;strokeWidth=2;fillColor=#f8cecc;strokeColor=#b85450;" edge="1" parent="1" source="61" target="58"><mxGeometry relative="1" as="geometry"/></mxCell><mxCell id="61" value="End User" style="html=1;verticalLabelPosition=bottom;align=center;labelBackgroundColor=#ffffff;verticalAlign=top;strokeWidth=2;strokeColor=#0080F0;shadow=0;dashed=0;shape=mxgraph.ios7.icons.user;" vertex="1" parent="1"><mxGeometry x="640.5" y="40" width="38" height="40" as="geometry"/></mxCell><mxCell id="63" style="edgeStyle=orthogonalEdgeStyle;rounded=0;orthogonalLoop=1;jettySize=auto;html=1;fillColor=#d5e8d4;strokeColor=#82b366;strokeWidth=2;entryX=0.168;entryY=0.824;entryDx=0;entryDy=0;entryPerimeter=0;" edge="1" parent="1" source="49" target="58"><mxGeometry relative="1" as="geometry"><mxPoint x="385" y="1180.952380952381" as="sourcePoint"/><mxPoint x="400" y="140" as="targetPoint"/><Array as="points"><mxPoint x="370" y="1110"/><mxPoint x="370" y="1190"/><mxPoint x="-190" y="1190"/><mxPoint x="-190" y="160"/><mxPoint x="385" y="160"/></Array></mxGeometry></mxCell><mxCell id="70" value="&lt;div style=&quot;text-align: center&quot;&gt;&lt;span&gt;concourse-web&lt;/span&gt;&lt;/div&gt;&lt;font style=&quot;font-size: 8px&quot;&gt;&lt;div style=&quot;text-align: center&quot;&gt;&lt;span&gt;Application Load Balancer&lt;/span&gt;&lt;/div&gt;&lt;/font&gt;" style="outlineConnect=0;dashed=0;verticalLabelPosition=middle;verticalAlign=middle;align=left;html=1;shape=mxgraph.aws3.application_load_balancer;fillColor=#F58534;gradientColor=none;labelPosition=right;" vertex="1" parent="1"><mxGeometry x="405" y="870" width="39" height="40" as="geometry"/></mxCell><mxCell id="73" style="edgeStyle=orthogonalEdgeStyle;rounded=0;orthogonalLoop=1;jettySize=auto;html=1;fillColor=#dae8fc;strokeColor=#6c8ebf;strokeWidth=2;" edge="1" parent="1"><mxGeometry relative="1" as="geometry"><Array as="points"><mxPoint x="424.82" y="920"/><mxPoint x="689.82" y="920"/></Array><mxPoint x="424.34941176470585" y="910" as="sourcePoint"/><mxPoint x="689.8788235294118" y="950" as="targetPoint"/></mxGeometry></mxCell><mxCell id="74" style="edgeStyle=orthogonalEdgeStyle;rounded=0;orthogonalLoop=1;jettySize=auto;html=1;entryX=0.193;entryY=0.204;entryDx=0;entryDy=0;entryPerimeter=0;fillColor=#dae8fc;strokeColor=#6c8ebf;strokeWidth=2;" edge="1" parent="1"><mxGeometry relative="1" as="geometry"><Array as="points"><mxPoint x="424.82" y="920"/><mxPoint x="169.82" y="920"/></Array><mxPoint x="424.34941176470585" y="910" as="sourcePoint"/><mxPoint x="170.01000000000005" y="949.9199999999998" as="targetPoint"/></mxGeometry></mxCell><mxCell id="75" style="edgeStyle=orthogonalEdgeStyle;rounded=0;orthogonalLoop=1;jettySize=auto;html=1;strokeWidth=2;fillColor=#dae8fc;strokeColor=#6c8ebf;" edge="1" parent="1"><mxGeometry relative="1" as="geometry"><mxPoint x="424.32" y="910" as="sourcePoint"/><mxPoint x="424.32" y="950" as="targetPoint"/></mxGeometry></mxCell><mxCell id="80" value="Managed Account" style="outlineConnect=0;gradientColor=none;html=1;whiteSpace=wrap;fontSize=12;fontStyle=0;shape=mxgraph.aws4.group;grIcon=mxgraph.aws4.group_aws_cloud;strokeColor=#858B94;fillColor=none;verticalAlign=top;align=left;spacingLeft=30;fontColor=#858B94;dashed=0;" vertex="1" parent="1"><mxGeometry x="870" y="190" width="830" height="980" as="geometry"/></mxCell><mxCell id="81" value="eu-west-2" style="outlineConnect=0;gradientColor=none;html=1;whiteSpace=wrap;fontSize=12;fontStyle=0;shape=mxgraph.aws4.group;grIcon=mxgraph.aws4.group_region;strokeColor=#879196;fillColor=none;verticalAlign=top;align=left;spacingLeft=30;fontColor=#879196;dashed=1;" vertex="1" parent="1"><mxGeometry x="880" y="240" width="810" height="920" as="geometry"/></mxCell><mxCell id="84" value="ci&lt;br&gt;&lt;font style=&quot;font-size: 8px&quot;&gt;IAM User&lt;/font&gt;" style="outlineConnect=0;dashed=0;verticalLabelPosition=bottom;verticalAlign=top;align=center;html=1;shape=mxgraph.aws3.iam;fillColor=#759C3E;gradientColor=none;aspect=fixed;" vertex="1" parent="1"><mxGeometry x="-120" y="300" width="21" height="40.5" as="geometry"/></mxCell><mxCell id="88" value="CloudWatch Logs" style="outlineConnect=0;dashed=0;verticalLabelPosition=bottom;verticalAlign=top;align=center;html=1;shape=mxgraph.aws3.cloudwatch;fillColor=#759C3E;gradientColor=none;aspect=fixed;" vertex="1" parent="1"><mxGeometry x="-130" y="420" width="41" height="46.22" as="geometry"/></mxCell><mxCell id="94" value="" style="endArrow=none;html=1;strokeWidth=2;fillColor=#d5e8d4;strokeColor=#82b366;startSize=6;" edge="1" parent="1"><mxGeometry width="50" height="50" relative="1" as="geometry"><mxPoint x="390" y="1110" as="sourcePoint"/><mxPoint x="420" y="1110" as="targetPoint"/></mxGeometry></mxCell><mxCell id="72" value="" style="group" vertex="1" connectable="0" parent="1"><mxGeometry x="80" y="949" width="718.5" height="170" as="geometry"/></mxCell><mxCell id="43" value="proxy" style="outlineConnect=0;gradientColor=none;html=1;whiteSpace=wrap;fontSize=12;fontStyle=0;shape=mxgraph.aws4.group;grIcon=mxgraph.aws4.group_vpc;strokeColor=#B6BABF;fillColor=none;verticalAlign=top;align=left;spacingLeft=30;fontColor=#B6BABF;dashed=0;" parent="72" vertex="1"><mxGeometry width="718.5" height="150" as="geometry"/></mxCell><mxCell id="44" value="proxy-public&lt;br&gt;" style="outlineConnect=0;gradientColor=none;html=1;whiteSpace=wrap;fontSize=12;fontStyle=0;shape=mxgraph.aws4.group;grIcon=mxgraph.aws4.group_subnet;strokeColor=#E8E8E8;fillColor=none;verticalAlign=top;align=left;spacingLeft=30;fontColor=#E8E8E8;dashed=0;" parent="72" vertex="1"><mxGeometry x="10" y="30" width="698.5" height="110" as="geometry"/></mxCell><mxCell id="45" value="squid-proxy" style="outlineConnect=0;dashed=0;verticalLabelPosition=bottom;verticalAlign=top;align=center;html=1;shape=mxgraph.aws3.ecs;fillColor=#D86613;gradientColor=none;fontFamily=Helvetica;fontSize=12;fontColor=#232F3E;" parent="72" vertex="1"><mxGeometry x="71" y="51" width="48" height="48" as="geometry"/></mxCell><mxCell id="46" value="squid-proxy" style="outlineConnect=0;dashed=0;verticalLabelPosition=bottom;verticalAlign=top;align=center;html=1;shape=mxgraph.aws3.ecs;fillColor=#D86613;gradientColor=none;fontFamily=Helvetica;fontSize=12;fontColor=#232F3E;" parent="72" vertex="1"><mxGeometry x="589" y="48" width="48" height="48" as="geometry"/></mxCell><mxCell id="47" value="squid-proxy" style="outlineConnect=0;dashed=0;verticalLabelPosition=bottom;verticalAlign=top;align=center;html=1;shape=mxgraph.aws3.ecs;fillColor=#D86613;gradientColor=none;fontFamily=Helvetica;fontSize=12;fontColor=#232F3E;" parent="72" vertex="1"><mxGeometry x="316.5" y="48" width="48" height="48" as="geometry"/></mxCell><mxCell id="49" value="proxy IGW" style="outlineConnect=0;dashed=0;verticalLabelPosition=bottom;verticalAlign=top;align=center;html=1;shape=mxgraph.aws3.internet_gateway;fillColor=#F58534;gradientColor=none;rounded=1;glass=0;strokeColor=#3334B9;" parent="72" vertex="1"><mxGeometry x="315.25" y="130" width="39" height="40" as="geometry"/></mxCell></root></mxGraphModel></diagram></mxfile>